<svg width="32" height="32" viewBox="0 0 32 32" fill="none" xmlns="http://www.w3.org/2000/svg">
<rect width="32" height="32" fill="#C5E1A5"/>
<path d="M13.614 24.4201C11.9991 24.4201 10.6171 24.0785 9.46801 23.3953C8.31892 22.712 7.43382 21.7415 6.81269 20.4838C6.2071 19.226 5.9043 17.7275 5.9043 15.9884C5.9043 14.2492 6.2071 12.7585 6.81269 11.5163C7.43382 10.2585 8.31892 9.28796 9.46801 8.60472C10.6171 7.92148 11.9991 7.57986 13.614 7.57986C14.7476 7.57986 15.7957 7.75844 16.7585 8.11559C17.7212 8.47273 18.5287 8.99293 19.1809 9.67616L18.4355 11.2367C17.7212 10.569 16.9759 10.0877 16.1995 9.79263C15.4386 9.48206 14.5923 9.32678 13.6606 9.32678C11.8128 9.32678 10.3997 9.90909 9.42142 11.0737C8.44315 12.2383 7.95401 13.8765 7.95401 15.9884C7.95401 18.1002 8.44315 19.7462 9.42142 20.9263C10.3997 22.0909 11.8128 22.6732 13.6606 22.6732C14.5923 22.6732 15.4386 22.5257 16.1995 22.2307C16.9759 21.9201 17.7212 21.431 18.4355 20.7633L19.1809 22.3238C18.5287 22.9916 17.7212 23.5117 16.7585 23.8844C15.7957 24.2416 14.7476 24.4201 13.614 24.4201Z" fill="black"/>
<path d="M24.6512 24.3153C23.5021 24.3153 22.6325 23.9737 22.0425 23.2905C21.4679 22.6072 21.1807 21.629 21.1807 20.3556V7.68468H23.0673V20.2159C23.0673 20.7594 23.1372 21.2175 23.277 21.5901C23.4322 21.9628 23.6574 22.2423 23.9524 22.4287C24.2475 22.615 24.6124 22.7082 25.0472 22.7082C25.2335 22.7082 25.4121 22.7004 25.5829 22.6849C25.7692 22.6538 25.94 22.615 26.0953 22.5684L26.0487 24.1523C25.8003 24.1989 25.5596 24.2377 25.3267 24.2687C25.1093 24.2998 24.8841 24.3153 24.6512 24.3153Z" fill="black"/>
</svg>
