<svg aria-hidden="true" style="position: absolute; width: 0; height: 0; overflow: hidden;" version="1.1" xmlns="http://www.w3.org/2000/svg" xmlns:xlink="http://www.w3.org/1999/xlink">
<defs>
<symbol id="i-arrow" viewBox="0 0 32 32">
<path stroke-linejoin="miter" stroke-linecap="butt" stroke-miterlimit="4" stroke-width="1.3333" d="M16.010 6.249c0.114 0 0.212 0.035 0.322 0.145 0.11 0.115 0.145 0.217 0.145 0.332-0 0.116-0.035 0.214-0.145 0.324l-8.482 8.482h17.88c0.162 0 0.262 0.047 0.348 0.132 0.083 0.082 0.129 0.177 0.129 0.337s-0.046 0.255-0.129 0.337c-0.085 0.084-0.186 0.131-0.348 0.132h-17.88l8.474 8.473c0.11 0.11 0.147 0.212 0.148 0.335v0.001c0.001 0.089-0.019 0.167-0.074 0.246l-0.069 0.082c-0.107 0.108-0.204 0.143-0.323 0.142-0.126-0.001-0.23-0.041-0.341-0.151l-9.264-9.264c-0.071-0.072-0.105-0.128-0.121-0.167v-0.001c-0.020-0.048-0.031-0.102-0.031-0.165s0.012-0.116 0.031-0.163v-0.001c0.016-0.038 0.050-0.095 0.121-0.167l9.267-9.267c0.121-0.116 0.227-0.152 0.342-0.152z"></path>
</symbol>
<symbol id="i-cart" viewBox="0 0 32 32">
<path d="M9.56 29.388c-0.662 0-1.226-0.236-1.693-0.707s-0.7-1.038-0.7-1.7c0-0.662 0.236-1.226 0.707-1.693s1.038-0.7 1.7-0.7c0.662 0 1.226 0.236 1.693 0.707s0.7 1.038 0.7 1.7c0 0.662-0.236 1.226-0.707 1.693s-1.038 0.7-1.7 0.7zM22.893 29.388c-0.662 0-1.226-0.236-1.693-0.707s-0.7-1.038-0.7-1.7c0-0.662 0.236-1.226 0.707-1.693s1.038-0.7 1.7-0.7c0.662 0 1.226 0.236 1.693 0.707s0.7 1.038 0.7 1.7c0 0.662-0.236 1.226-0.707 1.693s-1.038 0.7-1.7 0.7zM7.985 7.388l3.531 7.329h9.576l4.007-7.329h-17.115zM6.889 5.212h19.405c0.581 0 1.022 0.263 1.325 0.788s0.305 1.053 0.006 1.583l-4.364 7.869c-0.255 0.433-0.583 0.782-0.984 1.048s-0.844 0.399-1.331 0.399h-10.043l-1.811 3.379h15.207c0.308 0 0.567 0.105 0.775 0.314s0.313 0.468 0.313 0.778c0 0.309-0.104 0.567-0.313 0.774s-0.467 0.31-0.775 0.31h-15.067c-0.976 0-1.677-0.327-2.104-0.981s-0.419-1.383 0.025-2.188l2.109-3.886-5.019-10.646h-1.544c-0.308 0-0.567-0.105-0.775-0.314s-0.313-0.468-0.313-0.778c0-0.309 0.104-0.567 0.313-0.774s0.467-0.31 0.775-0.31h2.235c0.227 0 0.432 0.056 0.617 0.167s0.319 0.268 0.403 0.471l0.935 1.995z"></path>
</symbol>
<symbol id="i-chevron" viewBox="0 0 32 32">
<path stroke-linejoin="miter" stroke-linecap="butt" stroke-miterlimit="4" stroke-width="1.3333" d="M18.716 8.865c0.134 0 0.237 0.041 0.341 0.145s0.145 0.207 0.145 0.341-0.040 0.237-0.145 0.341l-6.276 6.276 6.276 6.275c0.104 0.104 0.133 0.193 0.129 0.301-0.005 0.125-0.047 0.233-0.161 0.348-0.104 0.104-0.207 0.146-0.341 0.146s-0.237-0.042-0.341-0.146l-6.592-6.591c-0.036-0.036-0.063-0.069-0.082-0.096l-0.039-0.070c-0.020-0.047-0.031-0.101-0.031-0.165 0-0.032 0.002-0.063 0.008-0.090l0.023-0.077c0.016-0.038 0.049-0.094 0.121-0.167l6.626-6.625c0.104-0.104 0.206-0.144 0.34-0.145z"></path>
</symbol>
<symbol id="i-cross" viewBox="0 0 32 32">
<path stroke-linejoin="miter" stroke-linecap="butt" stroke-miterlimit="4" stroke-width="1.3333" d="M23.466 7.9c0.219 0 0.355 0.065 0.462 0.172s0.172 0.242 0.172 0.461c0 0.219-0.065 0.355-0.172 0.462l-7.005 7.005 7.005 7.004c0.107 0.107 0.172 0.243 0.172 0.462s-0.065 0.355-0.172 0.462-0.243 0.172-0.462 0.172c-0.219-0-0.355-0.065-0.462-0.172l-7.004-7.005-7.005 7.005c-0.107 0.107-0.243 0.172-0.462 0.172s-0.354-0.065-0.461-0.172c-0.107-0.107-0.172-0.243-0.172-0.462s0.065-0.355 0.172-0.462l7.004-7.004-7.004-7.005c-0.107-0.107-0.172-0.243-0.172-0.462s0.065-0.354 0.172-0.461 0.242-0.172 0.461-0.172c0.219 0 0.355 0.065 0.462 0.172l7.005 7.004 7.004-7.004c0.107-0.107 0.243-0.172 0.462-0.172z"></path>
</symbol>
<symbol id="i-facebook" viewBox="0 0 32 32">
<path d="M29.333 16.405c0-7.409-5.969-13.415-13.333-13.415s-13.333 6.006-13.333 13.415c0 6.696 4.876 12.245 11.25 13.252v-9.374h-3.385v-3.878h3.385v-2.955c0-3.362 1.991-5.219 5.036-5.219 1.459 0 2.985 0.262 2.985 0.262v3.301h-1.681c-1.656 0-2.173 1.034-2.173 2.095v2.516h3.698l-0.591 3.878h-3.107v9.374c6.374-1.006 11.25-6.556 11.25-13.252z"></path>
</symbol>
<symbol id="i-instagram" viewBox="0 0 32 32">
<path d="M21.333 4.324h-10.667c-3.682 0-6.667 2.985-6.667 6.667v10.667c0 3.682 2.985 6.667 6.667 6.667h10.667c3.682 0 6.667-2.985 6.667-6.667v-10.667c0-3.682-2.985-6.667-6.667-6.667zM25.667 21.657c-0.007 2.39-1.943 4.326-4.333 4.333h-10.667c-2.39-0.007-4.326-1.943-4.333-4.333v-10.667c0.007-2.39 1.943-4.326 4.333-4.333h10.667c2.39 0.007 4.326 1.943 4.333 4.333v10.667zM22.333 11.324c0.736 0 1.333-0.597 1.333-1.333s-0.597-1.333-1.333-1.333c-0.736 0-1.333 0.597-1.333 1.333s0.597 1.333 1.333 1.333zM16 10.324c-3.314 0-6 2.686-6 6s2.686 6 6 6c3.314 0 6-2.686 6-6 0.004-1.592-0.627-3.121-1.753-4.247s-2.654-1.757-4.247-1.753zM12.333 16.324c0 2.025 1.642 3.667 3.667 3.667s3.667-1.642 3.667-3.667c0-2.025-1.642-3.667-3.667-3.667s-3.667 1.642-3.667 3.667z"></path>
</symbol>
<symbol id="i-menu" viewBox="0 0 32 32">
<path d="M4.936 24.295c-0.321 0-0.59-0.11-0.808-0.329s-0.327-0.493-0.327-0.82c0-0.322 0.109-0.591 0.327-0.807s0.488-0.323 0.808-0.323h22.127c0.321 0 0.591 0.11 0.812 0.329s0.331 0.49 0.331 0.812c0 0.328-0.11 0.599-0.331 0.814s-0.492 0.323-0.812 0.323h-22.127zM4.936 17.136c-0.321 0-0.59-0.11-0.808-0.329s-0.327-0.49-0.327-0.812c0-0.322 0.109-0.591 0.327-0.806s0.488-0.323 0.808-0.323h22.127c0.321 0 0.591 0.11 0.812 0.329s0.331 0.49 0.331 0.812c0 0.322-0.11 0.591-0.331 0.806s-0.492 0.323-0.812 0.323h-22.127zM4.936 9.984c-0.321 0-0.59-0.11-0.808-0.329s-0.327-0.493-0.327-0.82c0-0.322 0.109-0.591 0.327-0.806s0.488-0.323 0.808-0.323h22.127c0.321 0 0.591 0.11 0.812 0.329s0.331 0.49 0.331 0.812c0 0.328-0.11 0.599-0.331 0.815s-0.492 0.323-0.812 0.323h-22.127z"></path>
</symbol>
<symbol id="i-star" viewBox="0 0 32 32">
<path d="M10.878 23.674l5.122-3.062 5.122 3.095-1.376-5.798 4.504-3.92-5.939-0.517-2.311-5.472-2.311 5.447-5.939 0.509 4.504 3.912-1.376 5.806zM16 23.257l-6.216 3.749c-0.21 0.127-0.428 0.184-0.654 0.17s-0.428-0.084-0.605-0.211c-0.177-0.127-0.308-0.291-0.394-0.493s-0.104-0.429-0.054-0.684l1.641-7.083-5.482-4.783c-0.199-0.171-0.321-0.365-0.365-0.58s-0.038-0.425 0.017-0.63c0.050-0.204 0.164-0.377 0.344-0.518s0.396-0.222 0.65-0.245l7.249-0.633 2.808-6.691c0.1-0.232 0.25-0.404 0.452-0.518s0.405-0.17 0.609-0.17c0.204 0 0.407 0.057 0.609 0.17s0.353 0.286 0.452 0.518l2.808 6.691 7.257 0.633c0.249 0.022 0.463 0.104 0.642 0.245s0.294 0.313 0.344 0.518c0.055 0.204 0.061 0.414 0.017 0.63s-0.165 0.409-0.365 0.58l-5.482 4.783 1.641 7.083c0.049 0.254 0.031 0.482-0.054 0.684s-0.217 0.366-0.394 0.493c-0.177 0.127-0.379 0.198-0.605 0.211s-0.445-0.043-0.654-0.17l-6.216-3.749z"></path>
</symbol>
<symbol id="i-star-filled" viewBox="0 0 32 32">
<path d="M16 23.257l-6.216 3.749c-0.21 0.127-0.428 0.184-0.654 0.17s-0.428-0.084-0.605-0.211c-0.177-0.127-0.308-0.291-0.394-0.493s-0.104-0.429-0.054-0.684l1.641-7.083-5.482-4.783c-0.199-0.171-0.321-0.365-0.365-0.58s-0.038-0.425 0.017-0.63c0.050-0.204 0.164-0.377 0.344-0.518s0.396-0.222 0.65-0.245l7.249-0.633 2.808-6.691c0.1-0.232 0.25-0.404 0.452-0.518s0.405-0.17 0.609-0.17c0.204 0 0.407 0.057 0.609 0.17s0.353 0.286 0.452 0.518l2.808 6.691 7.257 0.633c0.249 0.022 0.463 0.104 0.642 0.245s0.294 0.313 0.344 0.518c0.055 0.204 0.061 0.414 0.017 0.63s-0.165 0.409-0.365 0.58l-5.482 4.783 1.641 7.083c0.049 0.254 0.031 0.482-0.054 0.684s-0.217 0.366-0.394 0.493c-0.177 0.127-0.379 0.198-0.605 0.211s-0.445-0.043-0.654-0.17l-6.216-3.749z"></path>
</symbol>
<symbol id="i-star-half" viewBox="0 0 32 32">
<path d="M16 7.999v12.613l5.122 3.095-1.376-5.798 4.504-3.92-5.939-0.517-2.311-5.472zM16 23.257l-6.216 3.749c-0.21 0.127-0.428 0.184-0.654 0.17s-0.428-0.084-0.605-0.211c-0.177-0.127-0.308-0.291-0.394-0.493s-0.104-0.429-0.054-0.684l1.641-7.083-5.482-4.783c-0.199-0.171-0.321-0.365-0.365-0.58s-0.038-0.425 0.017-0.63c0.050-0.204 0.164-0.377 0.344-0.518s0.396-0.222 0.65-0.245l7.249-0.633 2.808-6.691c0.1-0.232 0.25-0.404 0.452-0.518s0.405-0.17 0.609-0.17c0.204 0 0.407 0.057 0.609 0.17s0.353 0.286 0.452 0.518l2.808 6.691 7.257 0.633c0.249 0.022 0.463 0.104 0.642 0.245s0.294 0.313 0.344 0.518c0.055 0.204 0.061 0.414 0.017 0.63s-0.165 0.409-0.365 0.58l-5.482 4.783 1.641 7.083c0.049 0.254 0.031 0.482-0.054 0.684s-0.217 0.366-0.394 0.493c-0.177 0.127-0.379 0.198-0.605 0.211s-0.445-0.043-0.654-0.17l-6.216-3.749z"></path>
</symbol>
<symbol id="i-trash" viewBox="0 0 32 32">
<path d="M8.636 28.199c-0.632 0-1.17-0.221-1.614-0.663s-0.665-0.978-0.665-1.608v-18.865h-0.367c-0.321 0-0.59-0.11-0.808-0.329s-0.327-0.49-0.327-0.812c0-0.322 0.109-0.591 0.327-0.806s0.488-0.323 0.808-0.323h5.474c0-0.326 0.109-0.598 0.328-0.816s0.488-0.327 0.808-0.327h6.792c0.32 0 0.59 0.111 0.808 0.332s0.327 0.492 0.327 0.812h5.482c0.321 0 0.59 0.11 0.808 0.329s0.327 0.49 0.327 0.812c0 0.322-0.109 0.591-0.327 0.807s-0.488 0.323-0.808 0.323h-0.367v18.865c0 0.63-0.222 1.166-0.665 1.608s-0.981 0.663-1.614 0.663h-14.727zM23.363 7.064h-14.727v18.865h14.727v-18.865zM13.203 23.125c0.304 0 0.556-0.103 0.759-0.308s0.303-0.458 0.303-0.755v-11.173c0-0.298-0.103-0.549-0.31-0.755s-0.46-0.309-0.759-0.309c-0.306 0-0.56 0.103-0.763 0.309s-0.303 0.457-0.303 0.755v11.173c0 0.298 0.103 0.55 0.309 0.755s0.461 0.308 0.765 0.308zM18.814 23.125c0.3 0 0.552-0.103 0.757-0.308s0.307-0.458 0.307-0.755v-11.173c0-0.298-0.104-0.549-0.312-0.755s-0.463-0.309-0.764-0.309c-0.302 0-0.555 0.103-0.76 0.309s-0.307 0.457-0.307 0.755v11.173c0 0.298 0.105 0.55 0.315 0.755s0.465 0.308 0.765 0.308z"></path>
</symbol>
<symbol id="i-x" viewBox="0 0 32 32">
<path d="M22.901 5.657h3.68l-8.040 9.037 9.459 12.297h-7.406l-5.801-7.458-6.637 7.458h-3.682l8.6-9.666-9.074-11.668h7.594l5.243 6.817 6.064-6.817zM21.61 24.824h2.039l-13.163-17.115h-2.188l13.312 17.115z"></path>
</symbol>
<symbol id="i-youtube" viewBox="0 0 32 32">
<path d="M28.791 9.604c-0.152-0.563-0.449-1.077-0.861-1.49s-0.925-0.711-1.489-0.864c-2.088-0.573-10.441-0.583-10.441-0.583s-8.352-0.009-10.441 0.539c-0.563 0.16-1.075 0.462-1.487 0.878s-0.711 0.929-0.867 1.493c-0.551 2.088-0.556 6.419-0.556 6.419s-0.005 4.352 0.541 6.419c0.307 1.143 1.207 2.045 2.351 2.353 2.109 0.573 10.44 0.583 10.44 0.583s8.353 0.009 10.441-0.537c0.563-0.153 1.077-0.45 1.49-0.862s0.712-0.925 0.866-1.488c0.552-2.087 0.556-6.416 0.556-6.416s0.027-4.353-0.543-6.441zM13.328 20.007l0.007-8 6.943 4.007-6.949 3.993z"></path>
</symbol>
</defs>
</svg>
